<?xml version="1.0" encoding="utf-8"?>
<!-- Svg Vector Icons : http://www.onlinewebfonts.com/icon -->
<!DOCTYPE svg PUBLIC "-//W3C//DTD SVG 1.1//EN" "http://www.w3.org/Graphics/SVG/1.1/DTD/svg11.dtd">
<svg version="1.1" xmlns="http://www.w3.org/2000/svg" xmlns:xlink="http://www.w3.org/1999/xlink" x="0px" y="0px" viewBox="0 0 256 256" enable-background="new 0 0 256 256" xml:space="preserve">
<metadata> Svg Vector Icons : http://www.onlinewebfonts.com/icon </metadata>
<g><g><path fill="#000000" d="M89.2,190.8c3,0,5.9,0.6,8.6,1.7c2.7,1.1,5.1,2.7,7.1,4.7c2,2,3.6,4.3,4.8,7.1c1.2,2.7,1.8,5.6,1.8,8.6s-0.6,5.9-1.8,8.6c-1.2,2.7-2.8,5.1-4.8,7.1c-2,2-4.4,3.6-7.1,4.8c-2.7,1.2-5.6,1.8-8.6,1.8c-3.2,0-6.1-0.6-8.8-1.8c-2.7-1.2-5.1-2.8-7.1-4.8c-2-2-3.6-4.4-4.8-7.1c-1.2-2.7-1.8-5.6-1.8-8.6s0.6-5.9,1.8-8.6c1.2-2.7,2.8-5.1,4.8-7.1c2-2,4.4-3.5,7.1-4.7C83,191.3,86,190.8,89.2,190.8z M188.7,191.2c3,0,5.9,0.6,8.7,1.7c2.8,1.1,5.2,2.7,7.2,4.7c2,2,3.6,4.3,4.8,7.1c1.2,2.7,1.8,5.6,1.8,8.6s-0.6,5.9-1.8,8.6c-1.2,2.7-2.8,5.1-4.8,7.1c-2,2-4.4,3.6-7.2,4.8c-2.8,1.2-5.7,1.8-8.7,1.8c-3,0-5.9-0.6-8.6-1.8c-2.7-1.2-5.1-2.8-7.1-4.8s-3.6-4.4-4.8-7.1c-1.2-2.7-1.8-5.6-1.8-8.6s0.6-5.9,1.8-8.6s2.8-5.1,4.8-7.1s4.4-3.6,7.1-4.7C182.8,191.8,185.7,191.2,188.7,191.2z M228.9,55.4c4.5,0,7.9,0.6,10.4,1.8c2.5,1.2,4.2,2.7,5.3,4.4c1.1,1.8,1.5,3.6,1.4,5.6c-0.1,2-0.4,3.7-0.8,5.2c-0.5,1.4-1.5,4.4-3.1,8.8c-1.6,4.5-3.3,9.4-5.2,14.7s-3.7,10.6-5.5,15.9c-1.8,5.2-3.3,9.4-4.4,12.4c-2.1,6.4-4.7,10.8-7.8,13.3c-3.1,2.5-7,3.7-11.6,3.7H82l3.3,21.5h120.8c7.7,0,11.5,3.3,11.5,9.8c0,3.2-0.7,6-2.3,8.4c-1.5,2.4-4.5,3.5-9,3.3H81c-3.2,0-5.9-0.7-8-2.1c-2.1-1.4-3.9-3.3-5.4-5.6c-1.4-2.3-2.6-4.8-3.5-7.5c-0.9-2.7-1.6-5.3-2-7.7c-0.2-1-0.6-3.3-1.3-6.9c-0.7-3.7-1.6-8.3-2.6-13.8c-1-5.5-2.2-11.7-3.5-18.4c-1.3-6.8-2.6-13.6-3.8-20.4c-3-16.1-6.5-34.1-10.3-53.8H22.7c-2.4,0-4.4-0.6-6-1.8c-1.6-1.2-2.9-2.6-3.9-4.3c-1-1.7-1.8-3.5-2.1-5.4S10,32.9,10,31.3c0-3.2,1.1-5.8,3.2-7.9c2.1-2.1,5.1-3,8.7-2.9h24.2c3.2,0,5.7,0.5,7.7,1.4c1.9,1,3.4,2.2,4.6,3.6c1.1,1.4,1.9,2.9,2.4,4.4c0.5,1.5,0.9,2.8,1.2,3.9c0.3,1.3,0.7,3.1,1,5.4c0.3,2.3,0.6,4.7,1,7.1c0.5,2.9,1,5.9,1.4,9.1L228.9,55.4L228.9,55.4z M220,76.7L70.3,76.2l8.4,43.3l125.1,0.2L220,76.7z"/></g></g>
</svg>